<?xml version="1.0" encoding="utf-8"?>
<!-- Generator: Adobe Illustrator 24.2.0, SVG Export Plug-In . SVG Version: 6.00 Build 0)  -->
<svg version="1.1" id="Layer_1" xmlns="http://www.w3.org/2000/svg" xmlns:xlink="http://www.w3.org/1999/xlink" x="0px" y="0px"
	 viewBox="0 0 315.4 305.6" style="enable-background:new 0 0 315.4 305.6;" xml:space="preserve">
<style type="text/css">
	.st0{opacity:0.18;fill:#D95C22;enable-background:new    ;}
	.st1{fill:#D95C22;}
	.st2{fill:url(#SVGID_1_);}
	.st3{fill:#EEA886;}
	.st4{fill:url(#SVGID_2_);}
	.st5{fill:url(#SVGID_3_);}
	.st6{fill:url(#SVGID_4_);}
	.st7{fill:#FFFFFF;}
	.st8{font-family:'Lato-Bold';}
	.st9{font-size:18px;}
	.st10{font-family:'Verdana-Bold';}
	.st11{font-size:80px;}
	.st12{letter-spacing:1;}
</style>
<path class="st0" d="M96.1,206.2c20.7,9.1,44.1,8.9,66.7,8.6c11.9-0.1,24.1-0.4,34.9-5.3c15-6.8,24.7-21.5,37.9-31.4
	c15.1-11.4,34.5-16.3,49.1-28.3c27.1-22.2,31.1-62.1,8.9-89.2c-2.2-2.7-4.7-5.2-7.3-7.6c-7.8-6.8-17-11.6-26.2-16.3l-46-23.7
	c-10.8-5.6-21.9-11.2-33.9-12.7c-10.2-1.3-20.4,0.5-30.4,2.8c-28.3,6.4-56.4,17.4-77.1,37.6C54.8,58.2,43.1,81.6,23.6,97.1
	c-5,3.9-10.5,7.4-14.2,12.7c-13.1,18.8,0.2,42.8,17.2,52.5C50.2,175.5,71.4,195.4,96.1,206.2z"/>
<ellipse class="st1" cx="157.7" cy="286.1" rx="157.7" ry="19.5"/>
<linearGradient id="SVGID_1_" gradientUnits="userSpaceOnUse" x1="91.5793" y1="273.0134" x2="416.1611" y2="337.3231">
	<stop  offset="0" style="stop-color:#000000;stop-opacity:0"/>
	<stop  offset="0.95" style="stop-color:#000000"/>
</linearGradient>
<ellipse class="st2" cx="157.7" cy="286.1" rx="157.7" ry="19.5"/>
<path class="st3" d="M71.3,95.8c-5.9-4-13.2-5.5-20.2-4c-1.3,0.2-2.5,0.7-3.5,1.5c-2.4,2-2,5.7-2.6,8.8c-0.8,3.8-3.3,7-4.2,10.7
	c-0.5,2.8-0.6,5.7-0.1,8.5c1.3,11.1,4,22,7.9,32.4l-11,144.9c0,0,11.2,1.8,34.1,3.6l2.4-138L71.3,95.8z"/>
<linearGradient id="SVGID_2_" gradientUnits="userSpaceOnUse" x1="67.7022" y1="72.1023" x2="64.7922" y2="187.1823" gradientTransform="matrix(1 0 0 -1 0 303.7323)">
	<stop  offset="0" style="stop-color:#000000;stop-opacity:0"/>
	<stop  offset="0.99" style="stop-color:#000000"/>
</linearGradient>
<polygon class="st4" points="58.8,180.3 73.4,239.2 73.4,154.2 66.9,135 "/>
<path class="st3" d="M249.3,97c5.9-4,13.2-5.4,20.2-3.9c1.3,0.2,2.5,0.7,3.5,1.5c2.4,2,2,5.7,2.6,8.8c0.8,3.8,3.3,7,4.2,10.7
	c0.5,2.8,0.6,5.7,0.1,8.5c-1.3,11.1-4,22-7.9,32.4l11,142.9c0,0-12.2,2.1-34.1,4.1l-2.4-136.5L249.3,97z"/>
<linearGradient id="SVGID_3_" gradientUnits="userSpaceOnUse" x1="255.9975" y1="87.9622" x2="254.0575" y2="160.1522" gradientTransform="matrix(1 0 0 -1 0 303.7323)">
	<stop  offset="0" style="stop-color:#000000;stop-opacity:0"/>
	<stop  offset="0.95" style="stop-color:#000000"/>
</linearGradient>
<polygon class="st5" points="263.7,176.1 258.5,202.6 247.5,226.6 246.6,174.5 "/>
<path class="st1" d="M61,48.4h195c4.6,0,8.4,3.7,8.4,8.4v116.6c0,4.6-3.7,8.4-8.4,8.4H61c-4.6,0-8.4-3.7-8.4-8.4V56.8
	C52.6,52.1,56.4,48.4,61,48.4z"/>
<linearGradient id="SVGID_4_" gradientUnits="userSpaceOnUse" x1="154.9282" y1="65.2823" x2="159.4582" y2="221.9623" gradientTransform="matrix(1 0 0 -1 0 303.7323)">
	<stop  offset="0" style="stop-color:#000000;stop-opacity:0"/>
	<stop  offset="0.99" style="stop-color:#000000"/>
</linearGradient>
<path class="st6" d="M61,48.4h195c4.6,0,8.4,3.7,8.4,8.4v116.6c0,4.6-3.7,8.4-8.4,8.4H61c-4.6,0-8.4-3.7-8.4-8.4V56.8
	C52.6,52.1,56.4,48.4,61,48.4z"/>
<path class="st1" d="M61,43h195c4.6,0,8.4,3.7,8.4,8.4v116.6c0,4.6-3.7,8.4-8.4,8.4H61c-4.6,0-8.4-3.7-8.4-8.4V51.4
	C52.6,46.8,56.4,43,61,43z"/>
<path class="st3" d="M61.6,94c0.9,0.4,1.6,1.1,2.1,1.9c0.4,0.9,0.7,2,0.6,3l0.3,6.4c0.1,1.1,0,2.1-0.4,3.1c-0.4,1-1.5,1.6-2.6,1.4
	c0.8,2.5,0.5,5.3-0.8,7.6c-0.3,0.5-0.6,1-0.8,1.6c-0.1,0.7,0,1.3,0.1,2c0.5,3.3-0.5,6.6-2.7,9.1c-0.3,0.4-0.7,0.7-1.2,1
	c-0.6,0.3-1.2,0.4-1.9,0.4l-2.9,0.2c-0.5,0.2-1.1-0.1-1.3-0.6c0-0.1,0-0.2,0-0.3c-2.2-7.1-3.2-14.5-3-21.9c0.1-3.7,0.6-7.5,1.3-11.1
	c0.5-2.1,1.4-5.4,3.7-6.3C55.2,90.5,59,92.6,61.6,94z"/>
<path class="st3" d="M254.7,94c-0.9,0.4-1.6,1.1-2.1,1.9c-0.4,0.9-0.7,2-0.6,3l-0.3,6.4c-0.1,1.1,0,2.1,0.4,3.1
	c0.4,1,1.5,1.6,2.6,1.4c-0.8,2.5-0.5,5.3,0.8,7.6c0.3,0.5,0.6,1,0.8,1.6c0.1,0.7,0,1.3-0.1,2c-0.4,3.3,0.5,6.6,2.7,9.1
	c0.3,0.4,0.7,0.7,1.2,1c0.6,0.3,1.2,0.4,1.9,0.4l3,0.3c0.5,0.2,1.1-0.1,1.3-0.6c0-0.1,0-0.2,0-0.3c2.2-7.1,3.2-14.5,3-21.9
	c-0.1-3.7-0.6-7.5-1.4-11.1c-0.5-2.1-1-4.8-3.3-5.7C261.5,91.1,257.3,92.6,254.7,94z"/>
<text transform="matrix(1 0 0 1 78.6644 157.18)" class="st7 st8 st9">PAGE NOT FOUND</text>
<text transform="matrix(1 0 0 1 69.7128 119.76)" class="st7 st10 st11 st12">500</text>
</svg>
